Walking04_kinetics.mot
version=1
nRows=32
nColumns=19
inDegrees=yes
endheader
time	1_ground_force_vx	1_ground_force_vy	1_ground_force_vz	1_ground_force_px	1_ground_force_py	1_ground_force_pz	2_ground_force_vx	2_ground_force_vy	2_ground_force_vz	2_ground_force_px	2_ground_force_py	2_ground_force_pz	1_ground_torque_x	1_ground_torque_y	1_ground_torque_z	2_ground_torque_x	2_ground_torque_y	2_ground_torque_z
  0.24500000	  0.00000000	  0.00000000	  0.00000000	  0.30048871	 -0.00042294	 -0.20058549	-17.19969749	460.21400064	-32.23557024	 -0.27516373	  0.00243856	 -0.03356326	  0.00000000	  0.00000000	  0.00000000	  0.00113054	  0.86751544	  0.00002866
  0.24600000	  0.00000000	  0.00000000	  0.00000000	  0.30048871	 -0.00042294	 -0.20058549	-16.99713598	459.03533865	-32.10427535	 -0.27447651	  0.00243765	 -0.03341979	  0.00000000	  0.00000000	  0.00000000	  0.00111348	  0.85441923	  0.00002823
  0.24700000	  0.00000000	  0.00000000	  0.00000000	  0.30048871	 -0.00042294	 -0.20058549	-16.79705639	457.93480655	-31.97952022	 -0.27380348	  0.00243677	 -0.03327505	  0.00000000	  0.00000000	  0.00000000	  0.00109776	  0.84236209	  0.00002783
  0.24800000	  0.00000000	  0.00000000	  0.00000000	  0.30048871	 -0.00042294	 -0.20058549	-16.59622469	456.90806550	-31.86001440	 -0.27314595	  0.00243591	 -0.03312744	  0.00000000	  0.00000000	  0.00000000	  0.00108448	  0.83217266	  0.00002749
  0.24900000	  0.00000000	  0.00000000	  0.00000000	  0.30048871	 -0.00042294	 -0.20058549	-16.39230455	455.95111906	-31.74325844	 -0.27250209	  0.00243507	 -0.03297610	  0.00000000	  0.00000000	  0.00000000	  0.00107467	  0.82464504	  0.00002725
  0.25000000	  0.00000000	  0.00000000	  0.00000000	  0.30048871	 -0.00042294	 -0.20058549	-16.18400241	455.06048460	-31.62580425	 -0.27186802	  0.00243424	 -0.03282154	  0.00000000	  0.00000000	  0.00000000	  0.00106937	  0.82057297	  0.00002711
  0.25100000	  0.00000000	  0.00000000	  0.00000000	  0.30048871	 -0.00042294	 -0.20058549	-15.97031028	454.23166762	-31.50430126	 -0.27124010	  0.00243341	 -0.03266605	  0.00000000	  0.00000000	  0.00000000	  0.00106957	  0.82072878	  0.00002712
  0.25200000	  0.00000000	  0.00000000	  0.00000000	  0.30048871	 -0.00042294	 -0.20058549	-15.74981140	453.45804893	-31.37655433	 -0.27061666	  0.00243259	 -0.03251378	  0.00000000	  0.00000000	  0.00000000	  0.00107610	  0.82573942	  0.00002728
  0.25300000	  0.00000000	  0.00000000	  0.00000000	  0.30048871	 -0.00042294	 -0.20058549	-15.52073661	452.73166870	-31.24198734	 -0.26999767	  0.00243178	 -0.03236995	  0.00000000	  0.00000000	  0.00000000	  0.00108929	  0.83585727	  0.00002762
  0.25400000	  0.00000000	  0.00000000	  0.00000000	  0.30048871	 -0.00042294	 -0.20058549	-15.28149171	452.04508588	-31.10151871	 -0.26938358	  0.00243098	 -0.03223959	  0.00000000	  0.00000000	  0.00000000	  0.00110873	  0.85077673	  0.00002811
  0.25500000	  0.00000000	  0.00000000	  0.00000000	  0.30048871	 -0.00042294	 -0.20058549	-15.03110187	451.39286588	-30.95701446	 -0.26877471	  0.00243018	 -0.03212614	  0.00000000	  0.00000000	  0.00000000	  0.00113338	  0.86969489	  0.00002873
  0.25600000	  0.00000000	  0.00000000	  0.00000000	  0.30048871	 -0.00042294	 -0.20058549	-14.76942003	450.77233824	-30.81051077	 -0.26817151	  0.00242939	 -0.03203016	  0.00000000	  0.00000000	  0.00000000	  0.00116194	  0.89160534	  0.00002946
  0.25700000	  0.00000000	  0.00000000	  0.00000000	  0.30048871	 -0.00042294	 -0.20058549	-14.49718288	450.18394204	-30.66362416	 -0.26757504	  0.00242861	 -0.03194919	  0.00000000	  0.00000000	  0.00000000	  0.00119320	  0.91559191	  0.00003025
  0.25800000	  0.00000000	  0.00000000	  0.00000000	  0.30048871	 -0.00042294	 -0.20058549	-14.21594321	449.63123936	-30.51744242	 -0.26698707	  0.00242784	 -0.03187914	  0.00000000	  0.00000000	  0.00000000	  0.00122624	  0.94094762	  0.00003109
  0.25900000	  0.00000000	  0.00000000	  0.00000000	  0.30048871	 -0.00042294	 -0.20058549	-13.92777493	449.11998132	-30.37273902	 -0.26640984	  0.00242709	 -0.03181628	  0.00000000	  0.00000000	  0.00000000	  0.00126038	  0.96714614	  0.00003195
  0.26000000	  0.00000000	  0.00000000	  0.00000000	  0.30048871	 -0.00042294	 -0.20058549	-13.63459250	448.65537315	-30.23023327	 -0.26584563	  0.00242635	 -0.03175859	  0.00000000	  0.00000000	  0.00000000	  0.00129505	  0.99374920	  0.00003283
  0.26100000	  0.00000000	  0.00000000	  0.00000000	  0.30048871	 -0.00042294	 -0.20058549	-13.33726366	448.23828832	-30.09076391	 -0.26529628	  0.00242563	 -0.03170595	  0.00000000	  0.00000000	  0.00000000	  0.00132966	  1.02031036	  0.00003371
  0.26200000	  0.00000000	  0.00000000	  0.00000000	  0.30048871	 -0.00042294	 -0.20058549	-13.03522489	447.86358047	-29.95526220	 -0.26476305	  0.00242494	 -0.03165953	  0.00000000	  0.00000000	  0.00000000	  0.00136362	  1.04636957	  0.00003457
  0.26300000	  0.00000000	  0.00000000	  0.00000000	  0.30048871	 -0.00042294	 -0.20058549	-12.72700463	447.52237628	-29.82449446	 -0.26424683	  0.00242426	 -0.03162066	  0.00000000	  0.00000000	  0.00000000	  0.00139649	  1.07159183	  0.00003540
  0.26400000	  0.00000000	  0.00000000	  0.00000000	  0.30048871	 -0.00042294	 -0.20058549	-12.41096434	447.20559881	-29.69883908	 -0.26374844	  0.00242361	 -0.03158993	  0.00000000	  0.00000000	  0.00000000	  0.00142825	  1.09595547	  0.00003621
  0.26500000	  0.00000000	  0.00000000	  0.00000000	  0.30048871	 -0.00042294	 -0.20058549	-12.08526279	446.90470379	-29.57844835	 -0.26326829	  0.00242299	 -0.03156746	  0.00000000	  0.00000000	  0.00000000	  0.00145939	  1.11985375	  0.00003700
  0.26600000	  0.00000000	  0.00000000	  0.00000000	  0.30048871	 -0.00042294	 -0.20058549	-11.74715404	446.60971976	-29.46372073	 -0.26280557	  0.00242238	 -0.03155421	  0.00000000	  0.00000000	  0.00000000	  0.00149094	  1.14406348	  0.00003780
  0.26700000	  0.00000000	  0.00000000	  0.00000000	  0.30048871	 -0.00042294	 -0.20058549	-11.39293382	446.30881639	-29.35551228	 -0.26235786	  0.00242180	 -0.03155285	  0.00000000	  0.00000000	  0.00000000	  0.00152419	  1.16957780	  0.00003864
  0.26800000	  0.00000000	  0.00000000	  0.00000000	  0.30048871	 -0.00042294	 -0.20058549	-11.01932661	445.99208472	-29.25470968	 -0.26192181	  0.00242123	 -0.03156744	  0.00000000	  0.00000000	  0.00000000	  0.00156035	  1.19732646	  0.00003956
  0.26900000	  0.00000000	  0.00000000	  0.00000000	  0.30048871	 -0.00042294	 -0.20058549	-10.62526039	445.65674700	-29.16148173	 -0.26149422	  0.00242068	 -0.03160209	  0.00000000	  0.00000000	  0.00000000	  0.00160021	  1.22791167	  0.00004057
  0.27000000	  0.00000000	  0.00000000	  0.00000000	  0.30048871	 -0.00042294	 -0.20058549	-10.21244504	445.30945073	-29.07472143	 -0.26107275	  0.00242013	 -0.03165952	  0.00000000	  0.00000000	  0.00000000	  0.00164400	  1.26151654	  0.00004168
  0.27100000	  0.00000000	  0.00000000	  0.00000000	  0.30048871	 -0.00042294	 -0.20058549	 -9.78460494	444.96490917	-28.99184274	 -0.26065595	  0.00241959	 -0.03173985	  0.00000000	  0.00000000	  0.00000000	  0.00169153	  1.29798219	  0.00004288
  0.27200000	  0.00000000	  0.00000000	  0.00000000	  0.30048871	 -0.00042294	 -0.20058549	 -9.34649119	444.64299736	-28.90891339	 -0.26024311	  0.00241905	 -0.03183977	  0.00000000	  0.00000000	  0.00000000	  0.00174223	  1.33688863	  0.00004417
  0.27300000	  0.00000000	  0.00000000	  0.00000000	  0.30048871	 -0.00042294	 -0.20058549	 -8.90344280	444.36594781	-28.82111433	 -0.25983416	  0.00241852	 -0.03195239	  0.00000000	  0.00000000	  0.00000000	  0.00179519	  1.37753067	  0.00004551
  0.27400000	  0.00000000	  0.00000000	  0.00000000	  0.30048871	 -0.00042294	 -0.20058549	 -8.46111463	444.15593330	-28.72347272	 -0.25942978	  0.00241800	 -0.03206793	  0.00000000	  0.00000000	  0.00000000	  0.00184906	  1.41886207	  0.00004688
  0.27500000	  0.00000000	  0.00000000	  0.00000000	  0.30048871	 -0.00042294	 -0.20058549	 -8.02464172	444.03289202	-28.61182016	 -0.25903171	  0.00241749	 -0.03217523	  0.00000000	  0.00000000	  0.00000000	  0.00190206	  1.45953653	  0.00004822
  0.27600000	  0.00000000	  0.00000000	  0.00000000	  0.30048871	 -0.00042294	 -0.20058549	 -7.59721854	444.01238672	-28.48390144	 -0.25864315	  0.00241698	 -0.03226401	  0.00000000	  0.00000000	  0.00000000	  0.00195229	  1.49807495	  0.00004950
